<?xml version="1.0" standalone="no"?><!DOCTYPE svg PUBLIC "-//W3C//DTD SVG 1.1//EN" "http://www.w3.org/Graphics/SVG/1.1/DTD/svg11.dtd"><svg t="1771506555575" class="icon" viewBox="0 0 1024 1024" version="1.1" xmlns="http://www.w3.org/2000/svg" p-id="9584" xmlns:xlink="http://www.w3.org/1999/xlink" width="200" height="200"><path d="M939.6 320.9h-58.1c-8.8-35.1-40.7-61.2-78.5-61.2h-40.3c-10.9 0-19.7 8.8-19.7 19.7 0 10.9 8.8 19.7 19.7 19.7H803c22.9 0 41.6 18.6 41.6 41.5s-18.7 41.5-41.6 41.5H698c-22.2 0-40.4-17.4-41.5-39.3l5.7-23.1c0.6-0.9 1.1-1.9 1.6-2.8 1.4-2 3-3.9 4.7-5.7 7.9-7.8 18.3-12.2 29.4-12.2 10.9 0 19.7-8.8 19.7-19.7 0-10.9-8.8-19.7-19.7-19.7-8.6 0-17.1 1.4-25.1 3.9-0.4-2.5-1-5-1.7-7.5l-27.7-101.1c-9.6-35-41.7-59.5-78.1-59.5-7.2 0-14.4 1-21.4 2.9-20.9 5.7-38.2 19.2-49 37.9-10.7 18.8-13.5 40.5-7.8 61.4L515 298.9c4 14.4 11.7 27.2 22.3 37.3-15.6 11.2-26.5 27.4-31.2 46.2-0.1 0.2-0.1 0.5-0.2 0.7l-13.6 65.2c-9.9-4.4-20.9-6.8-32.4-6.8H355c-12.1 0-23.7 2.6-34.3 7.6-1.5-10.2-5.1-20.4-10.8-29.8l-54.4-89.7c-5.6-9.3-17.7-12.3-27.1-6.6-0.9 0.6-1.8 1.2-2.6 1.9-7.2 6.1-9.2 16.8-4.1 25.1l54.4 89.7c11.9 19.6 5.6 45.1-14 57-9.5 5.7-20.7 7.4-31.5 4.8-10.8-2.6-19.9-9.3-25.6-18.8l-34.9-57.6-19.4-32.1c-5.8-9.5-7.5-20.6-4.8-31.4 2.7-10.8 9.3-19.8 18.8-25.6 6.5-3.9 13.9-6 21.5-6 9.8 0 17.9-7.2 19.4-16.5 0.2-1 0.3-2.1 0.3-3.1 0-10.9-8.8-19.7-19.7-19.7-8.3 0-16.5 1.3-24.3 3.8L102 202.7c-5.9-9.1-18.1-11.7-27.3-5.7-9.1 5.9-11.7 18.1-5.7 27.2l59.3 90.7c-10 10.2-17.2 22.9-20.7 37.2-5.2 21-1.8 42.7 9.4 61.1l19.4 32.1 34.9 57.6c6.8 11.3 16.1 20.5 27 27.1-7.1 5.9-13.3 13.1-18.2 21.6l-73.7 126.6c-10.8 18.7-13.7 40.5-8.1 61.3 5.6 20.9 19 38.3 37.7 49.1 12.3 7.1 26.3 10.8 40.4 10.8 28.9 0 55.8-15.5 70.2-40.4l73.7-126.6c6-10.3 9.5-21.6 10.6-33.1 7.6 2.4 15.7 3.6 24 3.6h105c7.2 0 14.3-1 21-2.8 1.1 11.2 4.7 22.2 10.5 32.2L565.1 759c14.4 24.9 41.3 40.4 70.2 40.4 14.1 0 28.1-3.7 40.4-10.8 38.7-22.3 52-71.8 29.6-110.4l-73.7-126.6c-4-6.9-8.9-13-14.4-18.2 15.7-10.8 27.6-27.2 32.5-47.1 0.1-0.2 0.1-0.5 0.2-0.7l13.6-65.2c0.5-2.1 0.9-4.2 1.2-6.3 10.1 4.6 21.4 7.1 33.2 7.1h105c37.9 0 69.7-26.1 78.5-61.2h58.1c10.9 0 19.7-8.8 19.7-19.7 0.1-10.6-8.8-19.4-19.6-19.4z" fill="#2E0C08" p-id="9585"></path><path d="M186.2 329.9c-7.5 0-15 2.1-21.5 6-9.5 5.7-16.2 14.8-18.8 25.6-2.6 10.8-0.9 21.9 4.8 31.4l19.4 32.1 34.9 57.6c5.7 9.5 14.8 16.2 25.6 18.8 10.8 2.6 22 0.9 31.5-4.8 19.6-11.8 25.9-37.4 14-57l-54.4-89.7c-5.1-8.4-3.1-19 4.1-25.1-6-5.1-12.9-8.9-20.3-11.4-1.4 9.3-9.5 16.5-19.3 16.5z" fill="#BCE5E5" p-id="9586"></path><path d="M698 299.1c-11.1 0-21.6 4.3-29.4 12.2-1.8 1.8-3.3 3.7-4.7 5.7-0.5 0.9-1.1 1.9-1.6 2.8l-5.7 23.1c1.1 21.9 19.3 39.3 41.5 39.3h105c22.9 0 41.6-18.6 41.6-41.5s-18.7-41.5-41.6-41.5h-40.3c-10.9 0-19.7-8.8-19.7-19.7h-25.4c0 10.8-8.9 19.6-19.7 19.6zM529.3 155.9c5.5-9.6 14.4-16.5 25.1-19.5 3.6-1 7.3-1.5 11-1.5 18.7 0 35.1 12.6 40.1 30.5l27.7 101.1c2.8 10.1 1.6 20.7-3.2 30-1 1.5-1.9 3-2.8 4.6-5.5 8-13.7 13.8-23.2 16.4-10.7 2.9-21.9 1.5-31.6-4-9.6-5.5-16.6-14.4-19.5-25.1l-27.7-101.1c-2.8-10.6-1.4-21.8 4.1-31.4zM313.4 522.2c0-11.1 4.3-21.5 12.2-29.3 7.9-7.8 18.3-12.2 29.4-12.2h105c22.9 0 41.6 18.6 41.6 41.5s-18.7 41.5-41.6 41.5H355c-23 0-41.6-18.6-41.6-41.5zM176.5 760.1c-7.2 0-14.4-1.9-20.7-5.6-9.6-5.5-16.5-14.5-19.4-25.2-2.9-10.7-1.4-21.9 4.1-31.4l73.7-126.6c7.7-13.3 21.7-20.7 36.1-20.7 7.1 0 14.2 1.8 20.7 5.6 9.6 5.5 16.5 14.5 19.4 25.2 2.9 10.7 1.4 21.9-4.1 31.4l-73.7 126.6c-7.4 12.8-21.2 20.7-36.1 20.7zM671.2 697.9c11.5 19.8 4.6 45.3-15.2 56.7-6.3 3.6-13.5 5.6-20.7 5.6-14.9 0-28.7-8-36.1-20.8l-73.7-126.6c-5.6-9.6-7-20.8-4.2-31.5 2.9-10.7 9.8-19.6 19.4-25.2 19.9-11.4 45.3-4.6 56.8 15.2l73.7 126.6zM625.2 411.5c-0.1 0.2-0.1 0.5-0.2 0.7l-13.6 65.1c-5.6 22-28.1 35.5-50.2 30.1-18.7-4.6-31.7-21.1-31.7-40.3 0-3.3 0.4-6.7 1.2-10 0.1-0.2 0.1-0.4 0.2-0.7l13.6-65.1c2.7-10.6 9.4-19.6 18.8-25.3 9.5-5.7 20.7-7.4 31.4-4.8 10.8 2.6 19.9 9.3 25.6 18.8 5.8 9.6 7.5 20.8 4.9 31.5z" fill="#BCE5E5" p-id="9587"></path></svg>